<svg xmlns="http://www.w3.org/2000/svg" xml:space="preserve" viewBox="0 0 471 471">
  <path fill="#010002" d="M236 205c14 0 26 4 37 13s19 19 23 33a2166 2166 0 0 0 11 50 71 71 0 0 0 34 38c16 5 28 12 35 21s11 23 11 42c0 16-6 30-18 44a65 65 0 0 1-42 24c-34 4-65-1-91-16-27 15-57 20-91 16-17-2-31-10-43-24a67 67 0 0 1-17-44c0-18 3-32 11-41s19-17 36-23c10-5 17-11 23-19s9-15 11-21l6-25 5-24c3-13 10-24 21-32s24-12 38-12zm188-23c-5-4-15-1-30 11-16 11-27 22-35 32-9 10-13 21-13 35s4 26 13 36a39 39 0 0 0 56 6c8-6 13-14 17-23 6-16 9-34 8-54s-6-35-16-43zm-376 0c-10 8-16 23-17 43s2 38 9 54c3 9 8 17 16 23a40 40 0 0 0 57-6c8-10 13-22 13-36s-5-25-13-35-20-21-35-32c-16-12-26-15-30-11zM291 1c35 6 59 28 71 66 10 34 7 64-9 89-12 18-29 26-49 22-12-2-22-8-30-18s-13-21-14-33c-2-10-2-21-2-33l1-42c1-16 4-29 10-39 5-10 12-14 22-12zM181 1c9-2 16 2 22 12s8 23 9 39l2 42-2 33c-2 12-6 23-14 33s-18 16-30 18c-28 4-47-9-57-39-12-32-9-64 8-94 14-25 34-40 62-44z"/>
</svg>